<svg xmlns="http://www.w3.org/2000/svg" xmlns:xlink="http://www.w3.org/1999/xlink" width="500" zoomAndPan="magnify" viewBox="0 0 375 374.999991" height="500" preserveAspectRatio="xMidYMid meet" version="1.0"><defs><g/><clipPath id="2fa3f5cc56"><path d="M 127.058594 169.449219 L 175.3125 169.449219 L 175.3125 217.703125 L 127.058594 217.703125 Z M 127.058594 169.449219 " clip-rule="nonzero"/></clipPath><clipPath id="aa02af4a8a"><path d="M 151.1875 169.449219 C 137.863281 169.449219 127.058594 180.25 127.058594 193.574219 C 127.058594 206.898438 137.863281 217.703125 151.1875 217.703125 C 164.511719 217.703125 175.3125 206.898438 175.3125 193.574219 C 175.3125 180.25 164.511719 169.449219 151.1875 169.449219 Z M 151.1875 169.449219 " clip-rule="nonzero"/></clipPath><clipPath id="8387ffbfac"><path d="M 123.355469 166.179688 L 182.605469 166.179688 L 182.605469 226.929688 L 123.355469 226.929688 Z M 123.355469 166.179688 " clip-rule="nonzero"/></clipPath></defs><g fill="#000000" fill-opacity="1"><g transform="translate(31.603616, 220.219512)"><g><path d="M 35.8125 -82.640625 C 40.207031 -82.640625 44.5 -82 48.6875 -80.71875 C 52.882812 -79.4375 56.003906 -78.171875 58.046875 -76.921875 L 61 -74.96875 L 53.515625 -60.203125 C 52.921875 -60.597656 52.097656 -61.109375 51.046875 -61.734375 C 50.003906 -62.359375 48.039062 -63.191406 45.15625 -64.234375 C 42.269531 -65.285156 39.582031 -65.8125 37.09375 -65.8125 C 34.007812 -65.8125 31.628906 -65.15625 29.953125 -63.84375 C 28.285156 -62.53125 27.453125 -60.757812 27.453125 -58.53125 C 27.453125 -57.414062 27.84375 -56.382812 28.625 -55.4375 C 29.414062 -54.488281 30.757812 -53.472656 32.65625 -52.390625 C 34.5625 -51.304688 36.234375 -50.4375 37.671875 -49.78125 C 39.117188 -49.125 41.347656 -48.140625 44.359375 -46.828125 C 49.609375 -44.597656 54.085938 -41.5625 57.796875 -37.71875 C 61.503906 -33.882812 63.359375 -29.539062 63.359375 -24.6875 C 63.359375 -20.03125 62.519531 -15.960938 60.84375 -12.484375 C 59.175781 -9.015625 56.878906 -6.296875 53.953125 -4.328125 C 51.035156 -2.359375 47.804688 -0.898438 44.265625 0.046875 C 40.722656 0.992188 36.890625 1.46875 32.765625 1.46875 C 29.222656 1.46875 25.742188 1.109375 22.328125 0.390625 C 18.921875 -0.328125 16.066406 -1.226562 13.765625 -2.3125 C 11.472656 -3.394531 9.410156 -4.457031 7.578125 -5.5 C 5.742188 -6.550781 4.398438 -7.441406 3.546875 -8.171875 L 2.265625 -9.25 L 11.515625 -24.796875 C 12.296875 -24.140625 13.375 -23.300781 14.75 -22.28125 C 16.132812 -21.257812 18.578125 -19.894531 22.078125 -18.1875 C 25.585938 -16.488281 28.6875 -15.640625 31.375 -15.640625 C 39.1875 -15.640625 43.09375 -18.296875 43.09375 -23.609375 C 43.09375 -24.722656 42.8125 -25.753906 42.25 -26.703125 C 41.695312 -27.660156 40.710938 -28.613281 39.296875 -29.5625 C 37.890625 -30.507812 36.644531 -31.257812 35.5625 -31.8125 C 34.476562 -32.375 32.707031 -33.226562 30.25 -34.375 C 27.789062 -35.53125 25.972656 -36.398438 24.796875 -36.984375 C 19.867188 -39.410156 16.0625 -42.441406 13.375 -46.078125 C 10.6875 -49.722656 9.34375 -53.644531 9.34375 -57.84375 C 9.34375 -65.125 12.03125 -71.078125 17.40625 -75.703125 C 22.789062 -80.328125 28.925781 -82.640625 35.8125 -82.640625 Z M 35.8125 -82.640625 "/></g></g></g><g fill="#000000" fill-opacity="1"><g transform="translate(90.03255, 220.219512)"><g><path d="M 8.859375 -50.46875 L 8.859375 -69.25 L 26.265625 -69.25 L 26.265625 -50.46875 L 36.890625 -50.46875 L 36.890625 -37.1875 L 26.265625 -37.1875 L 26.265625 -21.15625 C 26.265625 -16.5 27.578125 -14.171875 30.203125 -14.171875 C 30.859375 -14.171875 31.546875 -14.300781 32.265625 -14.5625 C 32.984375 -14.820312 33.539062 -15.082031 33.9375 -15.34375 L 34.53125 -15.734375 L 38.859375 -1.671875 C 35.117188 0.421875 30.851562 1.46875 26.0625 1.46875 C 22.789062 1.46875 19.972656 0.894531 17.609375 -0.25 C 15.242188 -1.394531 13.453125 -2.929688 12.234375 -4.859375 C 11.023438 -6.796875 10.160156 -8.832031 9.640625 -10.96875 C 9.117188 -13.101562 8.859375 -15.382812 8.859375 -17.8125 L 8.859375 -37.1875 L 1.578125 -37.1875 L 1.578125 -50.46875 Z M 8.859375 -50.46875 "/></g></g></g><g fill="#000000" fill-opacity="1"><g transform="translate(121.213779, 220.219512)"><g><path d="M 9.34375 -6.25 C 4.625 -11.394531 2.265625 -17.707031 2.265625 -25.1875 C 2.265625 -32.664062 4.625 -38.992188 9.34375 -44.171875 C 14.0625 -49.347656 20.0625 -51.9375 27.34375 -51.9375 C 34.03125 -51.9375 39.539062 -49.835938 43.875 -45.640625 L 43.875 -50.46875 L 61.28125 -50.46875 L 61.28125 0 L 44.078125 0 L 44.078125 -5.703125 L 43.875 -5.703125 C 39.539062 -0.921875 34.03125 1.46875 27.34375 1.46875 C 20.0625 1.46875 14.0625 -1.101562 9.34375 -6.25 Z M 24.140625 -33.734375 C 21.878906 -31.503906 20.75 -28.648438 20.75 -25.171875 C 20.75 -21.703125 21.832031 -18.867188 24 -16.671875 C 26.164062 -14.472656 29.019531 -13.375 32.5625 -13.375 C 35.96875 -13.375 38.769531 -14.488281 40.96875 -16.71875 C 43.164062 -18.945312 44.265625 -21.769531 44.265625 -25.1875 C 44.265625 -28.65625 43.132812 -31.503906 40.875 -33.734375 C 38.613281 -35.972656 35.84375 -37.09375 32.5625 -37.09375 C 29.21875 -37.09375 26.410156 -35.972656 24.140625 -33.734375 Z M 24.140625 -33.734375 "/></g></g></g><g fill="#000000" fill-opacity="1"><g transform="translate(180.724746, 220.219512)"><g><path d="M 44.171875 -50.46875 L 64.234375 -50.46875 L 24.59375 25.578125 L 4.53125 25.578125 L 21.9375 -7.875 L -1.96875 -50.46875 L 18.09375 -50.46875 L 32.171875 -24.59375 Z M 44.171875 -50.46875 "/></g></g></g><g fill="#000000" fill-opacity="1"><g transform="translate(235.317363, 220.219512)"><g/></g></g><g fill="#000000" fill-opacity="1"><g transform="translate(254.497797, 220.219512)"><g><path d="M 7.578125 -78.59375 C 9.609375 -80.632812 12.03125 -81.65625 14.84375 -81.65625 C 17.664062 -81.65625 20.09375 -80.632812 22.125 -78.59375 C 24.164062 -76.5625 25.1875 -74.132812 25.1875 -71.3125 C 25.1875 -68.5 24.164062 -66.078125 22.125 -64.046875 C 20.09375 -62.015625 17.664062 -61 14.84375 -61 C 12.03125 -61 9.609375 -62.015625 7.578125 -64.046875 C 5.546875 -66.078125 4.53125 -68.5 4.53125 -71.3125 C 4.53125 -74.132812 5.546875 -76.5625 7.578125 -78.59375 Z M 5.90625 -50.46875 L 5.90625 0 L 23.3125 0 L 23.3125 -50.46875 Z M 5.90625 -50.46875 "/></g></g></g><g fill="#000000" fill-opacity="1"><g transform="translate(276.530876, 220.219512)"><g><path d="M 5.90625 0 L 5.90625 -50.46875 L 23.3125 -50.46875 L 23.3125 -45.15625 L 23.515625 -45.15625 C 28.035156 -49.675781 32.851562 -51.9375 37.96875 -51.9375 C 40.46875 -51.9375 42.945312 -51.609375 45.40625 -50.953125 C 47.863281 -50.296875 50.222656 -49.28125 52.484375 -47.90625 C 54.742188 -46.53125 56.578125 -44.578125 57.984375 -42.046875 C 59.398438 -39.523438 60.109375 -36.59375 60.109375 -33.25 L 60.109375 0 L 42.6875 0 L 42.6875 -28.53125 C 42.6875 -31.15625 41.847656 -33.445312 40.171875 -35.40625 C 38.503906 -37.375 36.328125 -38.359375 33.640625 -38.359375 C 31.015625 -38.359375 28.632812 -37.34375 26.5 -35.3125 C 24.375 -33.28125 23.3125 -31.019531 23.3125 -28.53125 L 23.3125 0 Z M 5.90625 0 "/></g></g></g><g clip-path="url(#2fa3f5cc56)"><g clip-path="url(#aa02af4a8a)"><path fill="#000000" d="M 127.058594 169.449219 L 175.3125 169.449219 L 175.3125 217.703125 L 127.058594 217.703125 Z M 127.058594 169.449219 " fill-opacity="1" fill-rule="nonzero"/></g></g><g clip-path="url(#8387ffbfac)"><path fill="#ffffff" d="M 182.476562 196.070312 L 173.757812 196.070312 C 158.832031 192.839844 155.511719 189.507812 152.285156 174.558594 L 152.285156 166.179688 L 151.179688 166.179688 L 151.179688 174.648438 C 147.957031 189.523438 144.621094 192.847656 129.722656 196.070312 L 123.363281 196.070312 L 123.363281 197.171875 L 129.722656 197.171875 C 144.621094 200.398438 147.957031 203.71875 151.179688 218.59375 L 151.179688 226.90625 L 152.285156 226.90625 L 152.285156 218.683594 C 155.511719 203.734375 158.832031 200.402344 173.757812 197.171875 L 182.476562 197.171875 Z M 182.476562 196.070312 " fill-opacity="1" fill-rule="nonzero"/></g><g fill="#cc7a39" fill-opacity="1"><g transform="translate(129.631852, 151.08675)"><g><path d="M 0.3125 -0.328125 L 0.859375 -0.390625 L 0.859375 -4.578125 L 0.34375 -4.65625 L 0.34375 -4.984375 L 1.21875 -4.984375 C 1.34375 -4.984375 1.515625 -4.992188 1.734375 -5.015625 C 1.953125 -5.035156 2.125 -5.046875 2.25 -5.046875 C 2.914062 -5.046875 3.382812 -4.9375 3.65625 -4.71875 C 3.9375 -4.507812 4.078125 -4.175781 4.078125 -3.71875 C 4.078125 -3.40625 3.988281 -3.113281 3.8125 -2.84375 C 3.632812 -2.582031 3.394531 -2.40625 3.09375 -2.3125 C 3.238281 -2.238281 3.367188 -2.109375 3.484375 -1.921875 C 3.609375 -1.734375 3.757812 -1.472656 3.9375 -1.140625 C 4.082031 -0.890625 4.191406 -0.707031 4.265625 -0.59375 C 4.335938 -0.476562 4.40625 -0.410156 4.46875 -0.390625 L 4.734375 -0.328125 L 4.734375 0 L 3.8125 0 C 3.738281 0 3.65625 -0.078125 3.5625 -0.234375 C 3.476562 -0.390625 3.363281 -0.628906 3.21875 -0.953125 C 3.050781 -1.304688 2.90625 -1.585938 2.78125 -1.796875 C 2.664062 -2.003906 2.550781 -2.132812 2.4375 -2.1875 C 1.957031 -2.1875 1.671875 -2.191406 1.578125 -2.203125 L 1.578125 -0.390625 L 2.25 -0.328125 L 2.25 0 L 0.3125 0 Z M 2.390625 -2.546875 C 2.671875 -2.546875 2.894531 -2.640625 3.0625 -2.828125 C 3.226562 -3.023438 3.3125 -3.304688 3.3125 -3.671875 C 3.3125 -4.003906 3.226562 -4.253906 3.0625 -4.421875 C 2.894531 -4.597656 2.601562 -4.6875 2.1875 -4.6875 C 2.039062 -4.6875 1.898438 -4.675781 1.765625 -4.65625 C 1.671875 -4.644531 1.609375 -4.640625 1.578125 -4.640625 L 1.578125 -2.5625 C 1.648438 -2.550781 1.789062 -2.546875 2 -2.546875 Z M 2.390625 -2.546875 "/></g></g></g><g fill="#cc7a39" fill-opacity="1"><g transform="translate(136.382581, 151.08675)"><g><path d="M 0.859375 -4.578125 L 0.3125 -4.65625 L 0.3125 -4.984375 L 3.734375 -4.984375 L 3.828125 -3.953125 L 3.453125 -3.953125 L 3.25 -4.609375 L 1.578125 -4.640625 L 1.578125 -2.75 L 2.703125 -2.765625 L 2.796875 -3.328125 L 3.171875 -3.328125 L 3.171875 -1.78125 L 2.796875 -1.78125 L 2.703125 -2.359375 L 1.578125 -2.375 L 1.578125 -0.375 L 3.484375 -0.4375 L 3.84375 -1.296875 L 4.234375 -1.171875 L 4.03125 0 L 0.3125 0 L 0.3125 -0.328125 L 0.859375 -0.390625 Z M 0.859375 -4.578125 "/></g></g></g><g fill="#cc7a39" fill-opacity="1"><g transform="translate(142.776949, 151.08675)"><g><path d="M 1.953125 0.078125 C 1.710938 0.078125 1.5 0.0546875 1.3125 0.015625 C 1.132812 -0.0234375 0.9375 -0.078125 0.71875 -0.140625 C 0.582031 -0.191406 0.484375 -0.222656 0.421875 -0.234375 L 0.46875 -1.4375 L 0.90625 -1.4375 L 1.015625 -0.578125 C 1.085938 -0.503906 1.207031 -0.4375 1.375 -0.375 C 1.550781 -0.320312 1.742188 -0.296875 1.953125 -0.296875 C 2.296875 -0.296875 2.554688 -0.367188 2.734375 -0.515625 C 2.910156 -0.671875 3 -0.882812 3 -1.15625 C 3 -1.332031 2.945312 -1.484375 2.84375 -1.609375 C 2.75 -1.734375 2.625 -1.835938 2.46875 -1.921875 C 2.3125 -2.015625 2.09375 -2.125 1.8125 -2.25 C 1.5625 -2.351562 1.34375 -2.460938 1.15625 -2.578125 C 0.96875 -2.703125 0.804688 -2.859375 0.671875 -3.046875 C 0.535156 -3.242188 0.46875 -3.476562 0.46875 -3.75 C 0.46875 -4 0.53125 -4.21875 0.65625 -4.40625 C 0.789062 -4.601562 0.984375 -4.757812 1.234375 -4.875 C 1.484375 -4.988281 1.773438 -5.046875 2.109375 -5.046875 C 2.316406 -5.046875 2.5 -5.03125 2.65625 -5 C 2.8125 -4.96875 2.992188 -4.925781 3.203125 -4.875 C 3.285156 -4.84375 3.359375 -4.820312 3.421875 -4.8125 L 3.390625 -3.6875 L 2.96875 -3.6875 L 2.84375 -4.515625 C 2.800781 -4.554688 2.707031 -4.597656 2.5625 -4.640625 C 2.414062 -4.679688 2.265625 -4.703125 2.109375 -4.703125 C 1.796875 -4.703125 1.554688 -4.632812 1.390625 -4.5 C 1.234375 -4.375 1.15625 -4.1875 1.15625 -3.9375 C 1.15625 -3.757812 1.203125 -3.609375 1.296875 -3.484375 C 1.398438 -3.367188 1.519531 -3.265625 1.65625 -3.171875 C 1.800781 -3.085938 2.03125 -2.972656 2.34375 -2.828125 C 2.632812 -2.691406 2.875 -2.566406 3.0625 -2.453125 C 3.25 -2.335938 3.40625 -2.1875 3.53125 -2 C 3.664062 -1.820312 3.734375 -1.609375 3.734375 -1.359375 C 3.734375 -1.117188 3.664062 -0.890625 3.53125 -0.671875 C 3.40625 -0.453125 3.207031 -0.269531 2.9375 -0.125 C 2.664062 0.0078125 2.335938 0.078125 1.953125 0.078125 Z M 1.953125 0.078125 "/></g></g></g><g fill="#cc7a39" fill-opacity="1"><g transform="translate(148.788058, 151.08675)"><g><path d="M 0.859375 -4.578125 L 0.3125 -4.65625 L 0.3125 -4.984375 L 3.734375 -4.984375 L 3.828125 -3.953125 L 3.453125 -3.953125 L 3.25 -4.609375 L 1.578125 -4.640625 L 1.578125 -2.75 L 2.703125 -2.765625 L 2.796875 -3.328125 L 3.171875 -3.328125 L 3.171875 -1.78125 L 2.796875 -1.78125 L 2.703125 -2.359375 L 1.578125 -2.375 L 1.578125 -0.375 L 3.484375 -0.4375 L 3.84375 -1.296875 L 4.234375 -1.171875 L 4.03125 0 L 0.3125 0 L 0.3125 -0.328125 L 0.859375 -0.390625 Z M 0.859375 -4.578125 "/></g></g></g><g fill="#cc7a39" fill-opacity="1"><g transform="translate(155.182424, 151.08675)"><g><path d="M 0.3125 -0.328125 L 0.859375 -0.390625 L 0.859375 -4.578125 L 0.34375 -4.65625 L 0.34375 -4.984375 L 1.21875 -4.984375 C 1.34375 -4.984375 1.515625 -4.992188 1.734375 -5.015625 C 1.953125 -5.035156 2.125 -5.046875 2.25 -5.046875 C 2.914062 -5.046875 3.382812 -4.9375 3.65625 -4.71875 C 3.9375 -4.507812 4.078125 -4.175781 4.078125 -3.71875 C 4.078125 -3.40625 3.988281 -3.113281 3.8125 -2.84375 C 3.632812 -2.582031 3.394531 -2.40625 3.09375 -2.3125 C 3.238281 -2.238281 3.367188 -2.109375 3.484375 -1.921875 C 3.609375 -1.734375 3.757812 -1.472656 3.9375 -1.140625 C 4.082031 -0.890625 4.191406 -0.707031 4.265625 -0.59375 C 4.335938 -0.476562 4.40625 -0.410156 4.46875 -0.390625 L 4.734375 -0.328125 L 4.734375 0 L 3.8125 0 C 3.738281 0 3.65625 -0.078125 3.5625 -0.234375 C 3.476562 -0.390625 3.363281 -0.628906 3.21875 -0.953125 C 3.050781 -1.304688 2.90625 -1.585938 2.78125 -1.796875 C 2.664062 -2.003906 2.550781 -2.132812 2.4375 -2.1875 C 1.957031 -2.1875 1.671875 -2.191406 1.578125 -2.203125 L 1.578125 -0.390625 L 2.25 -0.328125 L 2.25 0 L 0.3125 0 Z M 2.390625 -2.546875 C 2.671875 -2.546875 2.894531 -2.640625 3.0625 -2.828125 C 3.226562 -3.023438 3.3125 -3.304688 3.3125 -3.671875 C 3.3125 -4.003906 3.226562 -4.253906 3.0625 -4.421875 C 2.894531 -4.597656 2.601562 -4.6875 2.1875 -4.6875 C 2.039062 -4.6875 1.898438 -4.675781 1.765625 -4.65625 C 1.671875 -4.644531 1.609375 -4.640625 1.578125 -4.640625 L 1.578125 -2.5625 C 1.648438 -2.550781 1.789062 -2.546875 2 -2.546875 Z M 2.390625 -2.546875 "/></g></g></g><g fill="#cc7a39" fill-opacity="1"><g transform="translate(161.933153, 151.08675)"><g><path d="M -0.109375 -4.984375 L 1.671875 -4.984375 L 1.671875 -4.65625 L 1.078125 -4.578125 L 2.1875 -1.421875 L 2.4375 -0.609375 L 2.65625 -1.4375 L 3.65625 -4.578125 L 3.125 -4.65625 L 3.125 -4.984375 L 4.625 -4.984375 L 4.625 -4.65625 L 4.203125 -4.578125 L 2.609375 0.046875 L 2.015625 0.046875 L 0.296875 -4.578125 L -0.109375 -4.65625 Z M -0.109375 -4.984375 "/></g></g></g><g fill="#cc7a39" fill-opacity="1"><g transform="translate(168.45527, 151.08675)"><g><path d="M 0.859375 -4.578125 L 0.3125 -4.65625 L 0.3125 -4.984375 L 3.734375 -4.984375 L 3.828125 -3.953125 L 3.453125 -3.953125 L 3.25 -4.609375 L 1.578125 -4.640625 L 1.578125 -2.75 L 2.703125 -2.765625 L 2.796875 -3.328125 L 3.171875 -3.328125 L 3.171875 -1.78125 L 2.796875 -1.78125 L 2.703125 -2.359375 L 1.578125 -2.375 L 1.578125 -0.375 L 3.484375 -0.4375 L 3.84375 -1.296875 L 4.234375 -1.171875 L 4.03125 0 L 0.3125 0 L 0.3125 -0.328125 L 0.859375 -0.390625 Z M 0.859375 -4.578125 "/></g></g></g><g fill="#cc7a39" fill-opacity="1"><g transform="translate(174.849636, 151.08675)"><g/></g></g><g fill="#cc7a39" fill-opacity="1"><g transform="translate(178.460331, 151.08675)"><g><path d="M 1.828125 -1.9375 L 0.328125 -4.5625 L -0.078125 -4.65625 L -0.078125 -4.984375 L 1.671875 -4.984375 L 1.671875 -4.65625 L 1.140625 -4.578125 L 2.09375 -2.78125 L 2.296875 -2.265625 L 2.546875 -2.78125 L 3.4375 -4.578125 L 2.890625 -4.65625 L 2.890625 -4.984375 L 4.421875 -4.984375 L 4.421875 -4.65625 L 3.984375 -4.578125 L 2.578125 -1.953125 L 2.578125 -0.40625 L 3.328125 -0.328125 L 3.328125 0 L 1.109375 0 L 1.109375 -0.328125 L 1.828125 -0.390625 Z M 1.828125 -1.9375 "/></g></g></g><g fill="#cc7a39" fill-opacity="1"><g transform="translate(184.807631, 151.08675)"><g><path d="M 2.34375 0.078125 C 1.882812 0.078125 1.5 -0.0234375 1.1875 -0.234375 C 0.875 -0.453125 0.632812 -0.75 0.46875 -1.125 C 0.3125 -1.507812 0.234375 -1.957031 0.234375 -2.46875 C 0.234375 -2.976562 0.328125 -3.425781 0.515625 -3.8125 C 0.710938 -4.207031 0.976562 -4.507812 1.3125 -4.71875 C 1.65625 -4.9375 2.039062 -5.046875 2.46875 -5.046875 C 3.164062 -5.046875 3.695312 -4.820312 4.0625 -4.375 C 4.4375 -3.9375 4.625 -3.328125 4.625 -2.546875 C 4.625 -2.023438 4.523438 -1.566406 4.328125 -1.171875 C 4.128906 -0.773438 3.851562 -0.46875 3.5 -0.25 C 3.15625 -0.03125 2.769531 0.078125 2.34375 0.078125 Z M 2.4375 -4.703125 C 2 -4.703125 1.65625 -4.507812 1.40625 -4.125 C 1.15625 -3.75 1.03125 -3.195312 1.03125 -2.46875 C 1.03125 -1.789062 1.148438 -1.253906 1.390625 -0.859375 C 1.640625 -0.472656 1.984375 -0.28125 2.421875 -0.28125 C 2.847656 -0.28125 3.1875 -0.472656 3.4375 -0.859375 C 3.695312 -1.253906 3.828125 -1.816406 3.828125 -2.546875 C 3.828125 -3.222656 3.703125 -3.75 3.453125 -4.125 C 3.210938 -4.507812 2.875 -4.703125 2.4375 -4.703125 Z M 2.4375 -4.703125 "/></g></g></g><g fill="#cc7a39" fill-opacity="1"><g transform="translate(191.67939, 151.08675)"><g><path d="M 2.5625 0.046875 C 1.90625 0.046875 1.421875 -0.125 1.109375 -0.46875 C 0.796875 -0.820312 0.640625 -1.367188 0.640625 -2.109375 L 0.640625 -4.578125 L 0.15625 -4.65625 L 0.15625 -4.984375 L 1.953125 -4.984375 L 1.953125 -4.65625 L 1.390625 -4.5625 L 1.390625 -2.03125 C 1.390625 -1.425781 1.492188 -0.988281 1.703125 -0.71875 C 1.921875 -0.445312 2.234375 -0.3125 2.640625 -0.3125 C 3.054688 -0.3125 3.363281 -0.453125 3.5625 -0.734375 C 3.769531 -1.023438 3.875 -1.445312 3.875 -2 L 3.875 -4.5625 L 3.3125 -4.65625 L 3.3125 -4.984375 L 4.875 -4.984375 L 4.875 -4.65625 L 4.375 -4.578125 L 4.375 -2.03125 C 4.375 -1.332031 4.207031 -0.8125 3.875 -0.46875 C 3.550781 -0.125 3.113281 0.046875 2.5625 0.046875 Z M 2.5625 0.046875 "/></g></g></g><g fill="#cc7a39" fill-opacity="1"><g transform="translate(198.672179, 151.08675)"><g><path d="M 0.3125 -0.328125 L 0.859375 -0.390625 L 0.859375 -4.578125 L 0.34375 -4.65625 L 0.34375 -4.984375 L 1.21875 -4.984375 C 1.34375 -4.984375 1.515625 -4.992188 1.734375 -5.015625 C 1.953125 -5.035156 2.125 -5.046875 2.25 -5.046875 C 2.914062 -5.046875 3.382812 -4.9375 3.65625 -4.71875 C 3.9375 -4.507812 4.078125 -4.175781 4.078125 -3.71875 C 4.078125 -3.40625 3.988281 -3.113281 3.8125 -2.84375 C 3.632812 -2.582031 3.394531 -2.40625 3.09375 -2.3125 C 3.238281 -2.238281 3.367188 -2.109375 3.484375 -1.921875 C 3.609375 -1.734375 3.757812 -1.472656 3.9375 -1.140625 C 4.082031 -0.890625 4.191406 -0.707031 4.265625 -0.59375 C 4.335938 -0.476562 4.40625 -0.410156 4.46875 -0.390625 L 4.734375 -0.328125 L 4.734375 0 L 3.8125 0 C 3.738281 0 3.65625 -0.078125 3.5625 -0.234375 C 3.476562 -0.390625 3.363281 -0.628906 3.21875 -0.953125 C 3.050781 -1.304688 2.90625 -1.585938 2.78125 -1.796875 C 2.664062 -2.003906 2.550781 -2.132812 2.4375 -2.1875 C 1.957031 -2.1875 1.671875 -2.191406 1.578125 -2.203125 L 1.578125 -0.390625 L 2.25 -0.328125 L 2.25 0 L 0.3125 0 Z M 2.390625 -2.546875 C 2.671875 -2.546875 2.894531 -2.640625 3.0625 -2.828125 C 3.226562 -3.023438 3.3125 -3.304688 3.3125 -3.671875 C 3.3125 -4.003906 3.226562 -4.253906 3.0625 -4.421875 C 2.894531 -4.597656 2.601562 -4.6875 2.1875 -4.6875 C 2.039062 -4.6875 1.898438 -4.675781 1.765625 -4.65625 C 1.671875 -4.644531 1.609375 -4.640625 1.578125 -4.640625 L 1.578125 -2.5625 C 1.648438 -2.550781 1.789062 -2.546875 2 -2.546875 Z M 2.390625 -2.546875 "/></g></g></g><g fill="#cc7a39" fill-opacity="1"><g transform="translate(205.422912, 151.08675)"><g/></g></g><g fill="#cc7a39" fill-opacity="1"><g transform="translate(209.033611, 151.08675)"><g><path d="M 0.3125 -0.328125 L 0.859375 -0.390625 L 0.859375 -4.578125 L 0.34375 -4.65625 L 0.34375 -4.984375 L 1.21875 -4.984375 C 1.34375 -4.984375 1.515625 -4.992188 1.734375 -5.015625 C 1.953125 -5.035156 2.125 -5.046875 2.25 -5.046875 C 2.914062 -5.046875 3.382812 -4.9375 3.65625 -4.71875 C 3.9375 -4.507812 4.078125 -4.175781 4.078125 -3.71875 C 4.078125 -3.40625 3.988281 -3.113281 3.8125 -2.84375 C 3.632812 -2.582031 3.394531 -2.40625 3.09375 -2.3125 C 3.238281 -2.238281 3.367188 -2.109375 3.484375 -1.921875 C 3.609375 -1.734375 3.757812 -1.472656 3.9375 -1.140625 C 4.082031 -0.890625 4.191406 -0.707031 4.265625 -0.59375 C 4.335938 -0.476562 4.40625 -0.410156 4.46875 -0.390625 L 4.734375 -0.328125 L 4.734375 0 L 3.8125 0 C 3.738281 0 3.65625 -0.078125 3.5625 -0.234375 C 3.476562 -0.390625 3.363281 -0.628906 3.21875 -0.953125 C 3.050781 -1.304688 2.90625 -1.585938 2.78125 -1.796875 C 2.664062 -2.003906 2.550781 -2.132812 2.4375 -2.1875 C 1.957031 -2.1875 1.671875 -2.191406 1.578125 -2.203125 L 1.578125 -0.390625 L 2.25 -0.328125 L 2.25 0 L 0.3125 0 Z M 2.390625 -2.546875 C 2.671875 -2.546875 2.894531 -2.640625 3.0625 -2.828125 C 3.226562 -3.023438 3.3125 -3.304688 3.3125 -3.671875 C 3.3125 -4.003906 3.226562 -4.253906 3.0625 -4.421875 C 2.894531 -4.597656 2.601562 -4.6875 2.1875 -4.6875 C 2.039062 -4.6875 1.898438 -4.675781 1.765625 -4.65625 C 1.671875 -4.644531 1.609375 -4.640625 1.578125 -4.640625 L 1.578125 -2.5625 C 1.648438 -2.550781 1.789062 -2.546875 2 -2.546875 Z M 2.390625 -2.546875 "/></g></g></g><g fill="#cc7a39" fill-opacity="1"><g transform="translate(215.784344, 151.08675)"><g><path d="M 0.859375 -4.578125 L 0.3125 -4.65625 L 0.3125 -4.984375 L 3.734375 -4.984375 L 3.828125 -3.953125 L 3.453125 -3.953125 L 3.25 -4.609375 L 1.578125 -4.640625 L 1.578125 -2.75 L 2.703125 -2.765625 L 2.796875 -3.328125 L 3.171875 -3.328125 L 3.171875 -1.78125 L 2.796875 -1.78125 L 2.703125 -2.359375 L 1.578125 -2.375 L 1.578125 -0.375 L 3.484375 -0.4375 L 3.84375 -1.296875 L 4.234375 -1.171875 L 4.03125 0 L 0.3125 0 L 0.3125 -0.328125 L 0.859375 -0.390625 Z M 0.859375 -4.578125 "/></g></g></g><g fill="#cc7a39" fill-opacity="1"><g transform="translate(222.178715, 151.08675)"><g><path d="M 1.953125 0.078125 C 1.710938 0.078125 1.5 0.0546875 1.3125 0.015625 C 1.132812 -0.0234375 0.9375 -0.078125 0.71875 -0.140625 C 0.582031 -0.191406 0.484375 -0.222656 0.421875 -0.234375 L 0.46875 -1.4375 L 0.90625 -1.4375 L 1.015625 -0.578125 C 1.085938 -0.503906 1.207031 -0.4375 1.375 -0.375 C 1.550781 -0.320312 1.742188 -0.296875 1.953125 -0.296875 C 2.296875 -0.296875 2.554688 -0.367188 2.734375 -0.515625 C 2.910156 -0.671875 3 -0.882812 3 -1.15625 C 3 -1.332031 2.945312 -1.484375 2.84375 -1.609375 C 2.75 -1.734375 2.625 -1.835938 2.46875 -1.921875 C 2.3125 -2.015625 2.09375 -2.125 1.8125 -2.25 C 1.5625 -2.351562 1.34375 -2.460938 1.15625 -2.578125 C 0.96875 -2.703125 0.804688 -2.859375 0.671875 -3.046875 C 0.535156 -3.242188 0.46875 -3.476562 0.46875 -3.75 C 0.46875 -4 0.53125 -4.21875 0.65625 -4.40625 C 0.789062 -4.601562 0.984375 -4.757812 1.234375 -4.875 C 1.484375 -4.988281 1.773438 -5.046875 2.109375 -5.046875 C 2.316406 -5.046875 2.5 -5.03125 2.65625 -5 C 2.8125 -4.96875 2.992188 -4.925781 3.203125 -4.875 C 3.285156 -4.84375 3.359375 -4.820312 3.421875 -4.8125 L 3.390625 -3.6875 L 2.96875 -3.6875 L 2.84375 -4.515625 C 2.800781 -4.554688 2.707031 -4.597656 2.5625 -4.640625 C 2.414062 -4.679688 2.265625 -4.703125 2.109375 -4.703125 C 1.796875 -4.703125 1.554688 -4.632812 1.390625 -4.5 C 1.234375 -4.375 1.15625 -4.1875 1.15625 -3.9375 C 1.15625 -3.757812 1.203125 -3.609375 1.296875 -3.484375 C 1.398438 -3.367188 1.519531 -3.265625 1.65625 -3.171875 C 1.800781 -3.085938 2.03125 -2.972656 2.34375 -2.828125 C 2.632812 -2.691406 2.875 -2.566406 3.0625 -2.453125 C 3.25 -2.335938 3.40625 -2.1875 3.53125 -2 C 3.664062 -1.820312 3.734375 -1.609375 3.734375 -1.359375 C 3.734375 -1.117188 3.664062 -0.890625 3.53125 -0.671875 C 3.40625 -0.453125 3.207031 -0.269531 2.9375 -0.125 C 2.664062 0.0078125 2.335938 0.078125 1.953125 0.078125 Z M 1.953125 0.078125 "/></g></g></g><g fill="#cc7a39" fill-opacity="1"><g transform="translate(228.189826, 151.08675)"><g><path d="M 2.34375 0.078125 C 1.882812 0.078125 1.5 -0.0234375 1.1875 -0.234375 C 0.875 -0.453125 0.632812 -0.75 0.46875 -1.125 C 0.3125 -1.507812 0.234375 -1.957031 0.234375 -2.46875 C 0.234375 -2.976562 0.328125 -3.425781 0.515625 -3.8125 C 0.710938 -4.207031 0.976562 -4.507812 1.3125 -4.71875 C 1.65625 -4.9375 2.039062 -5.046875 2.46875 -5.046875 C 3.164062 -5.046875 3.695312 -4.820312 4.0625 -4.375 C 4.4375 -3.9375 4.625 -3.328125 4.625 -2.546875 C 4.625 -2.023438 4.523438 -1.566406 4.328125 -1.171875 C 4.128906 -0.773438 3.851562 -0.46875 3.5 -0.25 C 3.15625 -0.03125 2.769531 0.078125 2.34375 0.078125 Z M 2.4375 -4.703125 C 2 -4.703125 1.65625 -4.507812 1.40625 -4.125 C 1.15625 -3.75 1.03125 -3.195312 1.03125 -2.46875 C 1.03125 -1.789062 1.148438 -1.253906 1.390625 -0.859375 C 1.640625 -0.472656 1.984375 -0.28125 2.421875 -0.28125 C 2.847656 -0.28125 3.1875 -0.472656 3.4375 -0.859375 C 3.695312 -1.253906 3.828125 -1.816406 3.828125 -2.546875 C 3.828125 -3.222656 3.703125 -3.75 3.453125 -4.125 C 3.210938 -4.507812 2.875 -4.703125 2.4375 -4.703125 Z M 2.4375 -4.703125 "/></g></g></g><g fill="#cc7a39" fill-opacity="1"><g transform="translate(235.061589, 151.08675)"><g><path d="M 0.3125 -0.328125 L 0.859375 -0.390625 L 0.859375 -4.578125 L 0.34375 -4.65625 L 0.34375 -4.984375 L 1.21875 -4.984375 C 1.34375 -4.984375 1.515625 -4.992188 1.734375 -5.015625 C 1.953125 -5.035156 2.125 -5.046875 2.25 -5.046875 C 2.914062 -5.046875 3.382812 -4.9375 3.65625 -4.71875 C 3.9375 -4.507812 4.078125 -4.175781 4.078125 -3.71875 C 4.078125 -3.40625 3.988281 -3.113281 3.8125 -2.84375 C 3.632812 -2.582031 3.394531 -2.40625 3.09375 -2.3125 C 3.238281 -2.238281 3.367188 -2.109375 3.484375 -1.921875 C 3.609375 -1.734375 3.757812 -1.472656 3.9375 -1.140625 C 4.082031 -0.890625 4.191406 -0.707031 4.265625 -0.59375 C 4.335938 -0.476562 4.40625 -0.410156 4.46875 -0.390625 L 4.734375 -0.328125 L 4.734375 0 L 3.8125 0 C 3.738281 0 3.65625 -0.078125 3.5625 -0.234375 C 3.476562 -0.390625 3.363281 -0.628906 3.21875 -0.953125 C 3.050781 -1.304688 2.90625 -1.585938 2.78125 -1.796875 C 2.664062 -2.003906 2.550781 -2.132812 2.4375 -2.1875 C 1.957031 -2.1875 1.671875 -2.191406 1.578125 -2.203125 L 1.578125 -0.390625 L 2.25 -0.328125 L 2.25 0 L 0.3125 0 Z M 2.390625 -2.546875 C 2.671875 -2.546875 2.894531 -2.640625 3.0625 -2.828125 C 3.226562 -3.023438 3.3125 -3.304688 3.3125 -3.671875 C 3.3125 -4.003906 3.226562 -4.253906 3.0625 -4.421875 C 2.894531 -4.597656 2.601562 -4.6875 2.1875 -4.6875 C 2.039062 -4.6875 1.898438 -4.675781 1.765625 -4.65625 C 1.671875 -4.644531 1.609375 -4.640625 1.578125 -4.640625 L 1.578125 -2.5625 C 1.648438 -2.550781 1.789062 -2.546875 2 -2.546875 Z M 2.390625 -2.546875 "/></g></g></g><g fill="#cc7a39" fill-opacity="1"><g transform="translate(241.812322, 151.08675)"><g><path d="M 1.953125 -4.640625 L 0.796875 -4.59375 L 0.5625 -3.1875 L 0.109375 -3.1875 L 0.234375 -4.984375 L 4.421875 -4.984375 L 4.5 -3.1875 L 4.078125 -3.1875 L 3.84375 -4.59375 L 2.6875 -4.640625 L 2.6875 -0.390625 L 3.640625 -0.328125 L 3.640625 0 L 1.078125 0 L 1.078125 -0.328125 L 1.953125 -0.390625 Z M 1.953125 -4.640625 "/></g></g></g></svg>